<?xml version="1.0" encoding="UTF-8"?>
<svg id="Layer_1" xmlns="http://www.w3.org/2000/svg" xmlns:xlink="http://www.w3.org/1999/xlink" version="1.1" viewBox="0 0 142.6 98.1">
  <!-- Generator: Adobe Illustrator 29.5.1, SVG Export Plug-In . SVG Version: 2.1.0 Build 141)  -->
  <defs>
    <style>
      .st0 {
        fill: url(#linear-gradient2);
      }

      .st1 {
        fill: url(#linear-gradient1);
      }

      .st2 {
        fill: url(#linear-gradient3);
      }

      .st3 {
        fill: url(#linear-gradient);
      }
    </style>
    <linearGradient id="linear-gradient" x1="87.5" y1="-15.3" x2="89.9" y2="101.2" gradientUnits="userSpaceOnUse">
      <stop offset="0" stop-color="#5fe1ff"/>
      <stop offset="1" stop-color="#0990f3"/>
    </linearGradient>
    <linearGradient id="linear-gradient1" x1="44.2" y1="-14.4" x2="46.6" y2="102.1" gradientUnits="userSpaceOnUse">
      <stop offset="0" stop-color="#1390f4"/>
      <stop offset="1" stop-color="#041ce5"/>
    </linearGradient>
    <linearGradient id="linear-gradient2" x1="121.3" y1="-16" x2="123.6" y2="100.5" xlink:href="#linear-gradient1"/>
    <linearGradient id="linear-gradient3" x1="17" y1="-13.9" x2="19.4" y2="102.6" xlink:href="#linear-gradient"/>
  </defs>
  <path class="st3" d="M110,84.3l-28.6.4c-9.5-1.8-12-8.1-12.6-15.3v-36c0-4.7.1-9.5,0-14.2v-5c2-1.7,14.3-1.6,17-1.2,8.9,1.1,13.4,6.8,15.2,15.2.5,6.4-.3,15.2-.9,23.8,0,.1,0,.2,0,.3-.5,7.8-.8,15.5.5,20.8,1.3,5.6,4.6,8.6,9.5,11.2Z"/>
  <path class="st1" d="M61.6,29.9v44.1c-.7,5.1-2.8,9.5-9.7,10.7l-22.2-.3c3.8-2.1,6.4-4.4,7.4-8.7,2.1-8.8-1.1-25.2-.3-34.8,1.4-6.5,4.9-10.9,11.8-11.8,2-.2,11.2-.4,13,.8Z"/>
  <path class="st0" d="M115.5,82.5c-10.3-6-7.5-14.8-8.6-24.3-.3-2.7,1.6-5.2,4.3-5.6,3.3-.6,7.3-1,8.6-.9,8.4,0,15.3,2.8,18.3,11.3,4.5,12.7-11.1,26.3-22.5,19.6Z"/>
  <path class="st2" d="M24.9,83.1c8.8-5.8,4.4-13.7,6.1-22.2-.6-1.2-8.8-1.6-10.6-1.5-6.5.4-11.7,2.8-13.7,9.4-3,10,9.6,20,18.2,14.3Z"/>
</svg>