<?xml version="1.0" encoding="UTF-8"?>
<svg id="Layer_1" xmlns="http://www.w3.org/2000/svg" xmlns:xlink="http://www.w3.org/1999/xlink" version="1.1" viewBox="0 0 289.1 98.1">
  <!-- Generator: Adobe Illustrator 29.5.1, SVG Export Plug-In . SVG Version: 2.1.0 Build 141)  -->
  <defs>
    <style>
      .st0 {
        fill: url(#linear-gradient2);
      }

      .st1 {
        fill: url(#linear-gradient1);
      }

      .st2 {
        fill: url(#linear-gradient3);
      }

      .st3 {
        fill: url(#linear-gradient);
      }
    </style>
    <linearGradient id="linear-gradient" x1="93.2" y1="-15.3" x2="95.6" y2="101.2" gradientUnits="userSpaceOnUse">
      <stop offset="0" stop-color="#5fe1ff"/>
      <stop offset="1" stop-color="#0990f3"/>
    </linearGradient>
    <linearGradient id="linear-gradient1" x1="49.9" y1="-14.4" x2="52.2" y2="102.1" gradientUnits="userSpaceOnUse">
      <stop offset="0" stop-color="#1390f4"/>
      <stop offset="1" stop-color="#041ce5"/>
    </linearGradient>
    <linearGradient id="linear-gradient2" x1="127" y1="-16" x2="129.3" y2="100.5" xlink:href="#linear-gradient1"/>
    <linearGradient id="linear-gradient3" x1="22.7" y1="-13.9" x2="25" y2="102.6" xlink:href="#linear-gradient"/>
  </defs>
  <path class="st3" d="M115.7,84.3l-28.6.4c-9.5-1.8-12-8.1-12.6-15.3v-36c0-4.7.1-9.5,0-14.2v-5c2-1.7,14.3-1.6,17-1.2,8.9,1.1,13.4,6.8,15.2,15.2.5,6.4-.3,15.2-.9,23.8,0,.1,0,.2,0,.3-.5,7.8-.8,15.5.5,20.8,1.3,5.6,4.6,8.6,9.5,11.2Z"/>
  <path class="st1" d="M67.2,29.9v44.1c-.7,5.1-2.8,9.5-9.7,10.7l-22.2-.3c3.8-2.1,6.4-4.4,7.4-8.7,2.1-8.8-1.1-25.2-.3-34.8,1.4-6.5,4.9-10.9,11.8-11.8,2-.2,11.2-.4,13,.8Z"/>
  <path class="st0" d="M121.2,82.5c-10.3-6-7.5-14.8-8.6-24.3-.3-2.7,1.6-5.2,4.3-5.6,3.3-.6,7.3-1,8.6-.9,8.4,0,15.3,2.8,18.3,11.3,4.5,12.7-11.1,26.3-22.5,19.6Z"/>
  <path class="st2" d="M30.6,83.1c8.8-5.8,4.4-13.7,6.1-22.2-.6-1.2-8.8-1.6-10.6-1.5-6.5.4-11.7,2.8-13.7,9.4-3,10,9.6,20,18.2,14.3Z"/>
  <g>
    <path d="M172.2,30.1c-1.4-.8-2.5-1.8-3.3-3.2s-1.2-2.9-1.2-4.7.4-3.3,1.2-4.6c.8-1.4,1.9-2.4,3.3-3.2,1.4-.8,2.9-1.2,4.5-1.2s3.2.4,4.6,1.2c1.4.8,2.5,1.8,3.3,3.2.8,1.4,1.2,2.9,1.2,4.6s-.4,3.3-1.2,4.7c-.8,1.4-1.9,2.5-3.3,3.2-1.4.8-2.9,1.2-4.6,1.2s-3.2-.4-4.5-1.2ZM179.9,27.9c.9-.5,1.6-1.3,2.1-2.3.5-1,.8-2.1.8-3.4s-.3-2.4-.8-3.4c-.5-1-1.2-1.7-2.1-2.3-.9-.5-2-.8-3.1-.8s-2.2.3-3.1.8c-.9.5-1.6,1.3-2.1,2.3-.5,1-.8,2.1-.8,3.4s.3,2.5.8,3.4c.5,1,1.2,1.8,2.1,2.3.9.5,2,.8,3.1.8s2.2-.3,3.1-.8Z"/>
    <path d="M198.6,17.5c.9.5,1.6,1.1,2,2s.7,2,.7,3.3v8.3h-2.9v-7.8c0-1.3-.3-2.2-.9-2.9-.6-.7-1.5-1-2.6-1s-1.9.3-2.6,1c-.6.7-1,1.6-1,2.9v7.8h-2.9v-14h2.9v1.6c.5-.6,1.1-1,1.8-1.3.7-.3,1.5-.5,2.3-.5s2.1.2,3,.7Z"/>
    <path d="M208,12.3v18.8h-2.9V12.3h2.9Z"/>
    <path d="M211.9,14.7c-.4-.4-.5-.8-.5-1.3s.2-1,.5-1.3.8-.5,1.3-.5.9.2,1.3.5c.4.4.5.8.5,1.3s-.2,1-.5,1.3c-.4.4-.8.5-1.3.5s-1-.2-1.3-.5ZM214.7,17.1v14h-2.9v-14h2.9Z"/>
    <path d="M228.5,17.5c.9.5,1.6,1.1,2,2s.7,2,.7,3.3v8.3h-2.9v-7.8c0-1.3-.3-2.2-.9-2.9-.6-.7-1.5-1-2.6-1s-1.9.3-2.6,1c-.6.7-1,1.6-1,2.9v7.8h-2.9v-14h2.9v1.6c.5-.6,1.1-1,1.8-1.3.7-.3,1.5-.5,2.3-.5s2.1.2,3,.7Z"/>
    <path d="M247.7,25.1h-10.7c0,1.1.5,2,1.2,2.7.7.7,1.7,1,2.7,1,1.6,0,2.7-.7,3.3-2h3.1c-.4,1.3-1.2,2.3-2.3,3.2-1.1.8-2.5,1.2-4.1,1.2s-2.5-.3-3.6-.9-1.9-1.4-2.5-2.5c-.6-1.1-.9-2.4-.9-3.8s.3-2.7.9-3.8c.6-1.1,1.4-1.9,2.5-2.5s2.3-.9,3.6-.9,2.5.3,3.5.9,1.8,1.4,2.4,2.4c.6,1,.9,2.2.9,3.6s0,1-.1,1.4ZM244.8,22.8c0-1.1-.4-1.9-1.1-2.6-.7-.6-1.7-1-2.8-1s-1.9.3-2.6,1c-.7.6-1.1,1.5-1.3,2.6h7.7Z"/>
  </g>
  <g>
    <path d="M187.9,65.3v17.7h-3.6v-11.5l-4.7,11.5h-2.7l-4.8-11.5v11.5h-3.6v-17.7h4l5.6,13.2,5.6-13.2h4Z"/>
    <path d="M191.3,72.2c.6-1.1,1.3-1.9,2.3-2.5,1-.6,2.1-.9,3.3-.9s2,.2,2.8.6c.8.4,1.4,1,1.9,1.6v-2h3.6v14.1h-3.6v-2.1c-.5.7-1.1,1.2-1.9,1.6s-1.7.6-2.8.6-2.3-.3-3.2-.9-1.7-1.5-2.3-2.6c-.6-1.1-.9-2.4-.9-3.8s.3-2.7.9-3.8ZM201,73.8c-.3-.6-.8-1.1-1.4-1.4s-1.2-.5-1.9-.5-1.3.2-1.8.5c-.6.3-1,.8-1.4,1.4-.3.6-.5,1.3-.5,2.2s.2,1.6.5,2.2c.3.6.8,1.1,1.4,1.5s1.2.5,1.8.5,1.3-.2,1.9-.5,1-.8,1.4-1.4c.3-.6.5-1.4.5-2.2s-.2-1.6-.5-2.2Z"/>
    <path d="M220.5,70.4c1,1.1,1.5,2.5,1.5,4.4v8.3h-3.6v-7.8c0-1.1-.3-2-.8-2.6-.6-.6-1.3-.9-2.3-.9s-1.8.3-2.3.9c-.6.6-.9,1.5-.9,2.6v7.8h-3.6v-14.1h3.6v1.8c.5-.6,1.1-1.1,1.8-1.4.7-.3,1.5-.5,2.4-.5,1.7,0,3,.5,4.1,1.6Z"/>
    <path d="M225.3,72.2c.6-1.1,1.3-1.9,2.3-2.5,1-.6,2.1-.9,3.3-.9s2,.2,2.8.6c.8.4,1.4,1,1.9,1.6v-2h3.6v14.1h-3.6v-2.1c-.5.7-1.1,1.2-1.9,1.6s-1.7.6-2.8.6-2.3-.3-3.2-.9-1.7-1.5-2.3-2.6c-.6-1.1-.9-2.4-.9-3.8s.3-2.7.9-3.8ZM235,73.8c-.3-.6-.8-1.1-1.4-1.4s-1.2-.5-1.9-.5-1.3.2-1.8.5c-.6.3-1,.8-1.4,1.4-.3.6-.5,1.3-.5,2.2s.2,1.6.5,2.2c.3.6.8,1.1,1.4,1.5s1.2.5,1.8.5,1.3-.2,1.9-.5,1-.8,1.4-1.4c.3-.6.5-1.4.5-2.2s-.2-1.6-.5-2.2Z"/>
    <path d="M250.9,69.4c.8.4,1.4,1,1.9,1.6v-2h3.6v14.2c0,1.3-.3,2.5-.8,3.5-.5,1-1.3,1.8-2.4,2.4-1.1.6-2.3.9-3.8.9s-3.6-.5-4.9-1.4c-1.3-.9-2-2.2-2.2-3.8h3.5c.2.6.6,1.2,1.2,1.5s1.4.6,2.2.6,1.9-.3,2.5-.9c.6-.6,1-1.6,1-2.8v-2.2c-.5.7-1.1,1.2-1.9,1.7s-1.7.7-2.8.7-2.3-.3-3.3-.9-1.8-1.5-2.3-2.6c-.6-1.1-.9-2.4-.9-3.8s.3-2.7.9-3.8c.6-1.1,1.3-1.9,2.3-2.5,1-.6,2.1-.9,3.3-.9s2,.2,2.8.6ZM252.2,73.8c-.3-.6-.8-1.1-1.4-1.4s-1.2-.5-1.9-.5-1.3.2-1.8.5c-.6.3-1,.8-1.4,1.4-.3.6-.5,1.3-.5,2.2s.2,1.6.5,2.2c.3.6.8,1.1,1.4,1.5s1.2.5,1.8.5,1.3-.2,1.9-.5,1-.8,1.4-1.4c.3-.6.5-1.4.5-2.2s-.2-1.6-.5-2.2Z"/>
    <path d="M272.8,77.1h-10.3c0,1,.4,1.8,1.1,2.4.6.6,1.4.9,2.3.9,1.3,0,2.3-.6,2.8-1.7h3.8c-.4,1.4-1.2,2.5-2.3,3.3-1.2.9-2.6,1.3-4.2,1.3s-2.6-.3-3.6-.9-1.9-1.5-2.5-2.6c-.6-1.1-.9-2.4-.9-3.8s.3-2.7.9-3.8c.6-1.1,1.4-1.9,2.5-2.5,1.1-.6,2.3-.9,3.7-.9s2.5.3,3.6.9c1.1.6,1.9,1.4,2.5,2.5.6,1.1.9,2.3.9,3.6s0,1-.1,1.4ZM269.2,74.7c0-.9-.3-1.6-1-2.2-.6-.5-1.4-.8-2.4-.8s-1.6.3-2.2.8c-.6.5-1,1.3-1.1,2.2h6.7Z"/>
    <path d="M280.8,69.4c.7-.4,1.6-.6,2.5-.6v3.7h-.9c-1.1,0-2,.3-2.5.8-.6.5-.9,1.4-.9,2.7v7h-3.6v-14.1h3.6v2.2c.5-.7,1.1-1.3,1.8-1.8Z"/>
  </g>
  <g>
    <path d="M179.1,40.5v2.4h-7.5v5.2h5.8v2.4h-5.8v7.7h-2.9v-17.7h10.4Z"/>
    <path d="M181.9,41.7c-.4-.4-.5-.8-.5-1.3s.2-1,.5-1.3.8-.5,1.3-.5.9.2,1.3.5c.4.4.5.8.5,1.3s-.2,1-.5,1.3c-.4.4-.8.5-1.3.5s-1-.2-1.3-.5ZM184.7,44.1v14h-2.9v-14h2.9Z"/>
    <path d="M198.5,44.6c.9.5,1.6,1.1,2,2s.7,2,.7,3.3v8.3h-2.9v-7.8c0-1.3-.3-2.2-.9-2.9-.6-.7-1.5-1-2.6-1s-1.9.3-2.6,1c-.6.7-1,1.6-1,2.9v7.8h-2.9v-14h2.9v1.6c.5-.6,1.1-1,1.8-1.3.7-.3,1.5-.5,2.3-.5s2.1.2,3,.7Z"/>
    <path d="M204.9,47.3c.6-1.1,1.4-1.9,2.4-2.5s2.1-.9,3.3-.9,2.1.2,2.9.6c.8.4,1.5,1,2,1.6v-2h2.9v14h-2.9v-2.1c-.5.7-1.2,1.2-2,1.7-.8.4-1.8.7-2.9.7s-2.3-.3-3.3-.9-1.8-1.5-2.4-2.6c-.6-1.1-.9-2.4-.9-3.8s.3-2.6.9-3.7ZM214.9,48.6c-.4-.7-.9-1.3-1.6-1.6-.6-.4-1.3-.6-2.1-.6s-1.4.2-2.1.5c-.6.4-1.2.9-1.6,1.6s-.6,1.5-.6,2.5.2,1.8.6,2.5.9,1.3,1.6,1.7c.7.4,1.3.6,2.1.6s1.4-.2,2.1-.6c.6-.4,1.2-.9,1.6-1.6s.6-1.6.6-2.5-.2-1.8-.6-2.5Z"/>
    <path d="M232.2,44.6c.9.5,1.6,1.1,2,2s.7,2,.7,3.3v8.3h-2.9v-7.8c0-1.3-.3-2.2-.9-2.9-.6-.7-1.5-1-2.6-1s-1.9.3-2.6,1c-.6.7-1,1.6-1,2.9v7.8h-2.9v-14h2.9v1.6c.5-.6,1.1-1,1.8-1.3.7-.3,1.5-.5,2.3-.5s2.1.2,3,.7Z"/>
    <path d="M238.6,47.3c.6-1.1,1.4-1.9,2.4-2.5s2.2-.9,3.6-.9,3.1.4,4.2,1.2,1.9,2,2.2,3.4h-3.1c-.3-.7-.7-1.2-1.2-1.6-.6-.4-1.3-.6-2.1-.6s-2.1.4-2.8,1.3c-.7.8-1.1,2-1.1,3.5s.4,2.7,1.1,3.5c.7.8,1.6,1.3,2.8,1.3,1.7,0,2.8-.7,3.3-2.2h3.1c-.4,1.4-1.2,2.6-2.3,3.4-1.1.8-2.5,1.3-4.2,1.3s-2.5-.3-3.6-.9-1.8-1.4-2.4-2.5c-.6-1.1-.9-2.4-.9-3.8s.3-2.7.9-3.8Z"/>
    <path d="M266.6,52.2h-10.7c0,1.1.5,2,1.2,2.7.7.7,1.7,1,2.7,1,1.6,0,2.7-.7,3.3-2h3.1c-.4,1.3-1.2,2.3-2.3,3.2-1.1.8-2.5,1.2-4.1,1.2s-2.5-.3-3.6-.9-1.9-1.4-2.5-2.5c-.6-1.1-.9-2.4-.9-3.8s.3-2.7.9-3.8c.6-1.1,1.4-1.9,2.5-2.5s2.3-.9,3.6-.9,2.5.3,3.5.9,1.8,1.4,2.4,2.4c.6,1,.9,2.2.9,3.6s0,1-.1,1.4ZM263.7,49.9c0-1.1-.4-1.9-1.1-2.6-.7-.6-1.7-1-2.8-1s-1.9.3-2.6,1c-.7.6-1.1,1.5-1.3,2.6h7.7Z"/>
  </g>
  <rect x="155.4" y="11.1" width="1.7" height="75.3"/>
</svg>